<svg xmlns="http://www.w3.org/2000/svg" width="88" height="17" viewBox="0 0 88 17"><g><g><g><g><text fill="#494949" style="line-height:30px" dominant-baseline="text-before-edge" font-family="'Raleway','Raleway-Bold'" font-size="18" font-style="none" font-weight="700" transform="translate(0 3)"><tspan style="font-kerning:normal">Next</tspan></text></g></g><g><path fill="#494949" d="M87.769 7.953L79.813.228A.805.805 0 0 0 79.251 0a.784.784 0 0 0-.796.773c0 .214.09.407.234.546l6.597 6.407H53.794a.784.784 0 0 0-.796.772c0 .428.356.773.796.773h31.492l-6.597 6.407a.759.759 0 0 0-.234.546c0 .427.356.773.796.773.22 0 .419-.087.562-.227l7.956-7.725a.757.757 0 0 0 0-1.093z"/></g></g></g></svg>